# xmcd
# 
# Track frame offsets:
#     150
#     16173
#     30852
#     54091
#     64241
#     76861
#     91984
#     101842
#     120178
#     139666
#     198625
#     231703
#     254227
#     299621
#     335811
# 
# Disc length: 4774
# 
# Revision: 1
# Processed by: cddbd v1.5.2PL0 Copyright (c) Steve Scherf et al.
# Submitted via: fre:ac v1.0.31
# 
DISCID=d712a40f
DTITLE=Duane Allman - Skydog: The Duane Allman Retrospective Disc 6
DYEAR=2013
DGENRE=Rock/Pop
TTITLE0=SAM SAMUDIO - Me And Bobby McGee
TTITLE1=SAM SAMUDIO - Relativity
TTITLE2=SAM SAMUDIO - Goin' Upstairs
TTITLE3=RONNIE HAWKINS - Don't Tell Me Your Troubles
TTITLE4=RONNIE HAWKINS - Sick And Tired
TTITLE5=RONNIE HAWKINS - Odessa
TTITLE6=DELANEY and BONNIE and FRIENDS - Gift Of Love
TTITLE7=DELANEY and BONNIE and FRIENDS - Sing My Way Home
TTITLE8=THE ALLMAN BROTHERS BAND - Statesboro Blues (live)
TTITLE9=THE ALLMAN BROTHERS BAND - In Memory Of Elizabeth Reed (live)
TTITLE10=GRATEFUL DEAD - Sugar Magnolia (live)
TTITLE11=THE ALLMAN BROTHERS BAND - One Way Out (live)
TTITLE12=HERBIE MANN - Push Push
TTITLE13=HERBIE MANN - Spirit In The Dark
TTITLE14=HERBIE MANN - What'd I Say
EXTD=
EXTT0=
EXTT1=
EXTT2=
EXTT3=
EXTT4=
EXTT5=
EXTT6=
EXTT7=
EXTT8=
EXTT9=
EXTT10=
EXTT11=
EXTT12=
EXTT13=
EXTT14=
PLAYORDER=
